<svg xmlns="http://www.w3.org/2000/svg" aria-hidden="true" style="position:absolute;width:0;height:0;overflow:hidden">
  <defs>
    <symbol id="icon-burger-menu" viewBox="0 0 57 32">
      <path fill="#39515e" d="M1.684 0h53.102c.93 0 1.684.754 1.684 1.684v2.279c0 .93-.754 1.684-1.684 1.684H1.684C.754 5.647 0 4.893 0 3.963V1.684C0 .754.754 0 1.684 0zm0 13.176h53.102c.93 0 1.684.754 1.684 1.684v2.279c0 .93-.754 1.684-1.684 1.684H1.684c-.93 0-1.684-.754-1.684-1.684V14.86c0-.93.754-1.684 1.684-1.684zm0 13.177h36.574c.93 0 1.684.754 1.684 1.684v2.279c0 .93-.754 1.684-1.684 1.684H1.684C.754 32 0 31.246 0 30.316v-2.279c0-.93.754-1.684 1.684-1.684z" style="fill:var(--color1, #39515e)"/>
    </symbol>
    <symbol id="icon-vector" viewBox="0 0 32 32">
    <path fill="#39515e" style="fill: var(--color1, #39515e)" d="M19.551 16l10.83-10.804c0.474-0.474 0.741-1.117 0.741-1.788s-0.266-1.314-0.741-1.788c-0.474-0.474-1.117-0.741-1.788-0.741s-1.314 0.266-1.788 0.741l-10.804 10.83-10.804-10.83c-0.474-0.474-1.117-0.741-1.788-0.741s-1.314 0.266-1.788 0.741c-0.474 0.474-0.741 1.117-0.741 1.788s0.266 1.314 0.741 1.788l10.83 10.804-10.83 10.805c-0.236 0.234-0.423 0.513-0.551 0.82s-0.194 0.636-0.194 0.969 0.066 0.662 0.194 0.969c0.128 0.307 0.315 0.585 0.551 0.82 0.234 0.236 0.513 0.423 0.82 0.551s0.636 0.194 0.969 0.194c0.332 0 0.662-0.066 0.969-0.194s0.585-0.315 0.82-0.551l10.804-10.829 10.804 10.829c0.234 0.236 0.513 0.423 0.82 0.551s0.636 0.194 0.969 0.194 0.662-0.066 0.969-0.194c0.307-0.128 0.585-0.315 0.82-0.551 0.236-0.234 0.423-0.513 0.551-0.82s0.194-0.636 0.194-0.969c0-0.332-0.066-0.662-0.194-0.969s-0.315-0.585-0.551-0.82l-10.83-10.805z"></path>
    </symbol>
  </defs>
</svg>
