<svg xmlns="http://www.w3.org/2000/svg" aria-hidden="true" style="position:absolute;width:0;height:0;overflow:hidden">
  <defs>
    <symbol id="icon-burger-menu" viewBox="0 0 57 32">
      <path fill="#39515e" d="M1.684 0h53.102c.93 0 1.684.754 1.684 1.684v2.279c0 .93-.754 1.684-1.684 1.684H1.684C.754 5.647 0 4.893 0 3.963V1.684C0 .754.754 0 1.684 0zm0 13.176h53.102c.93 0 1.684.754 1.684 1.684v2.279c0 .93-.754 1.684-1.684 1.684H1.684c-.93 0-1.684-.754-1.684-1.684V14.86c0-.93.754-1.684 1.684-1.684zm0 13.177h36.574c.93 0 1.684.754 1.684 1.684v2.279c0 .93-.754 1.684-1.684 1.684H1.684C.754 32 0 31.246 0 30.316v-2.279c0-.93.754-1.684 1.684-1.684z" style="fill:var(--color1, #39515e)"/>
    </symbol>
  </defs>
</svg>
